<?xml version="1.0" encoding="utf-8"?>
<svg viewBox="17.6262 123.819 352.1318 344.5168" xmlns="http://www.w3.org/2000/svg">
  <path style="fill: #17a1c5;" d="M 205.513 205.745 C 268.065 204.767 287.003 164.344 287.789 123.819 C 287.499 164.344 301.297 205.092 369.758 205.178 C 298.116 205.93 287.767 247.714 288.352 288.239 C 288.781 247.714 268.065 203.606 205.513 205.745 Z"/>
  <polygon style="fill: #17a1c5;" points="314.275 232.401 322.389 251.392 341.325 259.057 330.842 241.397"/>
  <polygon style="fill: #17a1c5; transform-origin: 244.396px 245.729px;" points="230.871 259.057 238.986 240.065 257.921 232.401 247.439 250.06" transform="matrix(-1, 0, 0, -1, 0, 0.000030517578)"/>
  <polygon style="fill: #17a1c5;" points="314.274 177.389 322.388 158.397 341.324 150.733 330.842 168.392"/>
  <polygon style="fill: #17a1c5; transform-origin: 244.396px 164.061px;" points="230.871 150.733 238.986 169.724 257.92 177.389 247.439 159.729" transform="matrix(-1, 0, 0, -1, -0.000030517578, 0)"/>
  <path style="fill: #17a1c5;" d="M 162.82 155.163 C 112.361 251.928 90.773 398.67 321.209 399.04 C 141.603 595.849 -165.971 328.478 162.82 155.163 Z"/>
</svg>