<?xml version="1.0" encoding="utf-8"?>
<!-- Generator: Adobe Illustrator 13.0.0, SVG Export Plug-In . SVG Version: 6.00 Build 14948)  -->
<!DOCTYPE svg PUBLIC "-//W3C//DTD SVG 1.1//EN" "http://www.w3.org/Graphics/SVG/1.1/DTD/svg11.dtd">
<svg version="1.1" id="Calque_1" xmlns="http://www.w3.org/2000/svg" xmlns:xlink="http://www.w3.org/1999/xlink" x="0px" y="0px"
	 width="203.681px" height="214.037px" viewBox="0 0 203.681 214.037" enable-background="new 0 0 203.681 214.037"
	 xml:space="preserve">
<g>
	<g>
		<g>
			<path d="M8.379,106.87c-4.627-0.003-8.375-3.752-8.379-8.376l0,0v-1.293c0.072-1.75,1.441-2.592,2.66-2.592l0,0h0.134
				c0.854,0.017,1.411,0.361,1.822,0.757l0,0c0.399,0.411,0.754,0.968,0.771,1.835l0,0v1.293c0.003,1.641,1.349,2.986,2.992,2.99
				l0,0c1.639-0.003,2.983-1.349,2.986-2.99l0,0v-1.701v-0.068c0-0.018,0-0.035,0-0.069l0,0v-0.432L0.982,82.312
				c-0.323-0.439-0.532-0.846-0.668-1.238l0,0L0,80.251v-1.499v-1.768c-0.003-2.292,0.959-4.358,2.449-5.93l0,0
				c1.571-1.583,3.713-2.46,5.93-2.45l0,0c4.622,0.006,8.368,3.755,8.375,8.38l0,0v1.292c-0.062,1.734-1.444,2.591-2.657,2.591l0,0
				H13.96c-1.624-0.166-2.426-0.955-2.595-2.591l0,0v-1.292c-0.003-1.643-1.348-2.989-2.986-2.992l0,0
				c-1.644,0.003-2.989,1.349-2.992,2.992l0,0c0,0,0,0.952,0,1.698l0,0c0,0.069,0,0.069,0,0.069l0,0v0.5l10.386,13.912
				c0.305,0.414,0.509,0.798,0.645,1.171l0,0l0.335,0.707v1.613c0,0.069,0,0.069,0,0.137l0,0v1.701
				c0.003,2.289-0.958,4.354-2.449,5.928l0,0c-1.556,1.572-3.681,2.448-5.877,2.448l0,0C8.411,106.87,8.396,106.87,8.379,106.87
				L8.379,106.87z"/>
		</g>
	</g>
	<g>
		<g>
			<path d="M62.573,72.762c-0.854-0.017-1.411-0.361-1.824-0.76l0,0c-0.399-0.408-0.754-0.967-0.771-1.831l0,0V56.289h-5.911v13.883
				c-0.065,1.733-1.444,2.588-2.66,2.591l0,0h-0.136c-0.855-0.017-1.418-0.364-1.828-0.765l0,0
				c-0.398-0.412-0.748-0.971-0.764-1.826l0,0V42.876c0.014-4.621,3.727-8.367,8.311-8.382l0,0c4.624,0.009,8.37,3.755,8.375,8.382
				l0,0h0.003l-0.003,27.295c-0.017,0.864-0.372,1.423-0.77,1.831l0,0c-0.41,0.398-0.967,0.743-1.822,0.76l0,0H62.573L62.573,72.762
				z M54.068,42.876l-0.003,8.021h5.914v-8.021c-0.003-1.642-1.349-2.992-2.988-2.992l0,0
				C55.447,39.884,54.071,41.227,54.068,42.876L54.068,42.876z"/>
		</g>
	</g>
	<g>
		<g>
			<path d="M111.346,38.265c-1.22,0-2.588-0.844-2.662-2.589l0,0V8.379c-0.009-1.686-1.298-2.986-2.918-2.989l0,0
				c-1.644,0.003-2.989,1.349-2.994,2.989l0,0v27.297c-0.015,0.854-0.362,1.414-0.765,1.826l0,0
				c-0.409,0.399-0.969,0.746-1.826,0.763l0,0h-0.204c-0.856-0.017-1.417-0.364-1.826-0.763l0,0
				c-0.402-0.413-0.748-0.973-0.768-1.826l0,0l0.003-27.297c0.006-4.624,3.752-8.373,8.379-8.379l0,0
				c4.637,0.003,8.302,3.794,8.308,8.379l0,0v27.297c-0.017,0.864-0.373,1.424-0.771,1.832l0,0c-0.413,0.396-0.967,0.74-1.823,0.757
				l0,0H111.346L111.346,38.265z"/>
		</g>
	</g>
	<g>
		<g>
			<path d="M48.667,149.847l0.003-21.509c0.006-4.623,3.754-8.371,8.379-8.379l0,0c4.638,0,8.299,3.795,8.307,8.379l0,0v0.478v0.816
				c-0.003,0.429-0.089,1.043-0.592,1.669l0,0c-0.499,0.637-1.405,0.951-1.997,0.923l0,0h-0.137
				c-0.855-0.017-1.417-0.364-1.826-0.766l0,0c-0.403-0.41-0.75-0.974-0.766-1.826l0,0v-0.816v-0.478
				c-0.003-1.643-1.349-2.987-2.988-2.99l0,0c-1.643,0.003-2.988,1.348-2.992,2.99l0,0v21.509c0.004,1.641,1.349,2.984,2.992,2.989
				l0,0c1.639-0.005,2.985-1.349,2.988-2.989l0,0v-1.495c0.003-1.218,0.858-2.599,2.592-2.66l0,0h0.137
				c0.579-0.05,1.624,0.326,2.102,1.066l0,0c0.477,0.707,0.477,1.254,0.488,1.594l0,0l0.003,1.495
				c-0.011,4.586-3.672,8.379-8.31,8.379l0,0C52.424,158.22,48.677,154.472,48.667,149.847L48.667,149.847z"/>
		</g>
	</g>
	<g>
		<g>
			<path d="M100.087,123.768h-0.133c-0.86-0.017-1.42-0.362-1.83-0.765l0,0c-0.4-0.41-0.746-0.97-0.766-1.824l0,0V88.165
				c0.003-1.21,0.858-2.601,2.595-2.663l0,0h0.133c0.584-0.048,1.628,0.332,2.103,1.068l0,0c0.476,0.704,0.479,1.249,0.489,1.595
				l0,0l-0.003,13.811h5.982V88.165c0-1.21,0.855-2.601,2.593-2.663l0,0h0.202c1.724,0.056,2.591,1.453,2.595,2.663l0,0v33.014
				c-0.17,1.633-0.973,2.423-2.595,2.589l0,0h-0.202c-0.856-0.017-1.417-0.362-1.829-0.765l0,0c-0.4-0.41-0.747-0.97-0.767-1.824
				l0,0v-13.885h-5.977v13.885c-0.003,0.438-0.096,1.051-0.599,1.672l0,0c-0.473,0.6-1.314,0.918-1.909,0.918l0,0
				C100.143,123.769,100.115,123.769,100.087,123.768L100.087,123.768z"/>
		</g>
	</g>
	<g>
		<g>
			<path d="M146.104,81.245l0.003-21.507c0.006-4.625,3.753-8.373,8.379-8.379l0,0c4.637,0,8.299,3.792,8.309,8.379l0,0v21.507
				c-0.01,4.584-3.672,8.38-8.309,8.38l0,0C149.86,89.618,146.113,85.872,146.104,81.245L146.104,81.245z M151.495,59.738
				l-0.003,21.507c0.003,1.641,1.351,2.988,2.994,2.988l0,0c1.639,0,2.982-1.347,2.986-2.988l0,0V59.738
				c-0.004-1.644-1.348-2.988-2.986-2.991l0,0c-1.644,0.003-2.991,1.351-2.994,2.991l0,0H151.495L151.495,59.738z"/>
		</g>
	</g>
	<g>
		<g>
			<path d="M190.86,116.981v-5.865c0-3.553,2.894-6.448,6.444-6.448l0,0c3.553,0,6.37,2.903,6.376,6.448l0,0v5.865
				c-0.006,3.542-2.823,6.444-6.376,6.444l0,0C193.754,123.425,190.86,120.533,190.86,116.981L190.86,116.981z M192.382,116.981
				c0.005,2.713,2.207,4.917,4.923,4.923l0,0c2.713-0.006,4.917-2.21,4.923-4.923l0,0v-5.865c-0.006-2.716-2.21-4.92-4.923-4.927
				l0,0c-2.711,0.007-4.918,2.211-4.923,4.927l0,0V116.981L192.382,116.981z"/>
		</g>
	</g>
	<polygon points="191.497,130.224 191.497,129.065 202.719,129.065 202.719,130.224 191.497,130.224 	"/>
	<g>
		<polygon points="116.969,181.638 117.286,181.289 117.438,180.802 117.885,180.554 118.068,180.078 118.386,179.711 
			118.899,179.556 119.15,179.125 119.578,178.887 119.954,178.595 120.312,178.282 120.612,177.878 121.107,177.765 
			121.527,177.561 121.938,177.307 122.38,177.528 122.554,178.026 123.071,178.185 123.309,178.612 123.667,178.926 
			124.002,179.263 124.254,179.678 124.709,179.896 125.007,180.268 125.355,180.579 125.731,180.824 125.993,181.231 
			126.461,181.33 126.787,181.671 127.234,181.775 127.637,181.99 128.062,182.167 128.532,182.059 129.088,182.131 
			128.597,182.418 128.094,182.455 127.797,182.875 127.337,182.998 126.938,183.234 126.538,183.464 126.176,183.754 125.8,184.02 
			125.44,184.308 125.038,184.544 124.612,184.75 124.316,185.118 124.047,185.509 123.754,185.868 123.333,186.095 
			122.991,186.405 122.62,186.669 122.27,186.926 121.804,186.971 121.366,186.791 120.886,186.612 120.718,186.104 
			120.338,185.796 120.04,185.418 119.742,185.038 119.474,184.659 119.295,184.2 118.885,183.938 118.54,183.625 118.295,183.194 
			117.908,182.92 117.519,182.659 117.067,182.487 116.785,182.079 		"/>
	</g>
	<g>
		<g>
			<path d="M118.759,192.778l-0.331-0.298l-0.241-0.385l-0.287-0.339l-0.308-0.316l-0.306-0.327l-0.403-0.211l-0.265-0.362
				l-0.44-0.272l-0.284-0.429l-0.309-0.392l-0.471-0.279l-0.052-0.503l-0.271-0.381l-0.113-0.45l-0.104-0.462l0.115-0.465
				l0.076-0.458l-0.064-0.444l0.154-0.414l0.045-0.429l0.019-0.44l0.197-0.504l-0.219,0.566l-0.393,0.32l-0.222,0.438l-0.248,0.42
				l-0.334,0.375l-0.246,0.426l-0.307,0.31l-0.39,0.294l-0.459-0.189l-0.39-0.275l-0.425-0.212l-0.419-0.232l-0.34-0.329
				l-0.38-0.274l-0.399-0.254l-0.34-0.326l-0.357-0.309l-0.413-0.232l-0.442-0.196l-0.385-0.268l-0.298-0.385l-0.412-0.234
				l-0.405-0.24l-0.406-0.254l-0.211-0.478l0.047-0.462l0.16-0.405l0.193-0.453l0.363-0.344l0.423-0.193l0.5-0.061l0.275-0.447
				l0.486-0.102l0.428-0.213l0.291-0.384l0.354-0.305l0.263-0.393l0.239-0.399l0.413-0.274l0.233-0.405l0.266-0.39l0.204-0.421
				l0.037-0.499l0.151-0.439l0.329-0.397l0.106-0.467l-0.062-0.489l0.044-0.47l-0.005-0.471l0.06-0.482l-0.157-0.457l-0.133-0.455
				l-0.049-0.483l-0.193-0.438l-0.19-0.438l-0.208-0.432l-0.29-0.381l-0.29-0.38l-0.254-0.406l-0.408-0.273l-0.329-0.34
				l-0.252-0.424l-0.533-0.096l-0.19-0.351l0.065,0.391l0.388,0.305l0.075,0.467l0.179,0.415l0.136,0.43l0.202,0.407l0.07,0.45
				l0.233,0.406l-0.007,0.464l0.22,0.425l-0.078,0.465l0.121,0.452l-0.046,0.456l-0.119,0.444l-0.063,0.448l-0.131,0.458
				l-0.104,0.462l-0.038,0.487l-0.324,0.391l-0.005,0.509l-0.323,0.379l-0.165,0.447l-0.131,0.47l-0.356,0.345l-0.18,0.453
				l-0.337,0.344l-0.223,0.436l-0.401,0.28l-0.32,0.354l-0.415,0.245l-0.317,0.381l-0.459,0.166l-0.493,0.097l-0.443,0.175
				l-0.478,0.182l-0.351-0.208l-0.185-0.387l-0.514-0.106l-0.273-0.398l-0.354-0.309l-0.26-0.396l-0.202-0.431l-0.247-0.391
				l-0.42-0.293l-0.05-0.505l-0.381-0.335l-0.187-0.434l0.045-0.516l-0.207-0.42l-0.065-0.464l-0.242-0.423l-0.063-0.465
				l-0.139-0.459l0.188-0.478l-0.001-0.461l-0.095-0.478l0.228-0.434l-0.063-0.497l0.258-0.407l0.263-0.387l0.061-0.495l0.307-0.363
				l0.276-0.374l0.287-0.364l0.193-0.437l0.381-0.281l0.269-0.39l0.409-0.229l0.356-0.298L104,168l0.377-0.292l0.449-0.125
				l0.448-0.13l0.461-0.076l0.47,0.04l0.462-0.046l0.532-0.015l-0.529-0.1l-0.346-0.348h-0.476l-0.39-0.281l-0.462-0.014
				l-0.43-0.172l-0.465,0.061l-0.434-0.21l-0.461,0.089l-0.451,0.099l-0.449-0.04l-0.456-0.08l-0.441,0.121l-0.429,0.148
				l-0.447,0.047l-0.479-0.033l-0.356,0.351l-0.521-0.079l-0.349,0.326l-0.349,0.296l-0.42,0.176l-0.406,0.214l-0.292,0.383
				l-0.311,0.346l-0.453,0.199l-0.2,0.456l-0.331,0.323l-0.271,0.375l-0.326,0.332l-0.377,0.307l-0.102,0.485l-0.219,0.404
				l-0.218,0.408l-0.243,0.398l-0.089,0.461l-0.302,0.393l-0.109,0.455l0.03,0.486l-0.056,0.459l-0.138,0.447l0.015,0.47
				l-0.112,0.454l-0.087,0.46l-0.066,0.464l0.075,0.47l0.027,0.465l-0.139,0.472l0.085,0.468l0.028,0.469l-0.013,0.476l0.075,0.467
				l0.236,0.432l0.087,0.461l-0.028,0.498l0.228,0.423l0.13,0.458l0.257,0.402l0.323,0.362l0.116,0.467l0.204,0.373l-0.033,0.442
				l0.068,0.398l-0.05,0.425l0.489,0.083l0.409,0.177l0.373,0.216l0.334,0.372l0.328,0.34l0.397,0.244l0.46,0.17l0.378,0.266
				l0.231,0.447l0.461,0.163l0.242,0.435l0.375,0.27l0.372,0.274l0.365,0.282l0.299,0.364l0.438,0.192l0.308,0.353l0.42,0.217
				l0.306,0.356l0.371,0.274l0.387,0.256l0.401,0.236l0.324,0.334l0.332,0.325l0.435,0.194l0.339,0.316l0.368,0.277l0.32,0.342
				l0.368,0.277l0.336,0.322l0.307,0.357l0.437,0.192l0.293,0.375l0.428,0.205l0.367,0.281l0.273,0.396l0.427,0.204l0.296,0.37
				l0.433,0.199l0.387,0.257l0.323,0.336l0.307,0.354l0.388,0.256l0.323,0.335l0.378,0.266l0.354,0.298l0.414,0.219l0.384,0.266
				l0.429,0.212l0.293,0.381l0.423,0.229l0.323,0.341l0.166,0.487l0.333,0.321l0.356,0.312l0.229,0.408l0.299,0.365l0.241,0.405
				l0.033,0.495l0.36,0.365l0.004,0.489l0.166,0.443l0.047,0.467l0.094,0.465l0.032,0.472l-0.056,0.47l-0.06,0.467l0.011,0.463
				l-0.235,0.42l-0.039,0.458l-0.057,0.459l-0.356,0.355l-0.188,0.406l-0.152,0.423l-0.162,0.423l-0.171,0.429l-0.354,0.306
				l-0.275,0.357l-0.202,0.42l-0.326,0.316l-0.398,0.238l-0.218,0.438l-0.473,0.131l-0.355,0.273l-0.301,0.372l-0.479,0.069
				l-0.37,0.269l-0.376,0.296l-0.486-0.036l-0.429,0.166l-0.458,0.127l0.456-0.061l0.459,0.035l0.455-0.086l0.456-0.008l0.455-0.064
				l0.448-0.088l0.459-0.025l0.444-0.118l0.447-0.086l0.426-0.176l0.469-0.006l0.404-0.238l0.462-0.052l0.402-0.224l0.42-0.178
				l0.374-0.263l0.48-0.061l0.405-0.215l0.321-0.345l0.353-0.283l0.374-0.254l0.405-0.224l0.356-0.287l0.39-0.26l0.229-0.411
				l0.303-0.341l0.267-0.372l0.29-0.354l0.147-0.447l0.284-0.359l0.175-0.423l0.271-0.371l0.18-0.433l0.19-0.426l0.204-0.425
				l0.183-0.434l0.046-0.474l-0.03-0.483l0.224-0.429l0.081-0.461l0.116-0.458l0.002-0.471l-0.116-0.472l0.025-0.462l-0.088-0.461
				l0.185-0.482l-0.224-0.443l-0.094-0.455l0.104-0.492l-0.295-0.412l-0.107-0.45l0.004-0.483l-0.262-0.405l-0.088-0.462
				l-0.175-0.429l-0.104-0.466l-0.249-0.398l-0.216-0.413l-0.157-0.445l-0.249-0.397l-0.378-0.31l-0.119-0.486l-0.442-0.246
				l-0.115-0.512l-0.455-0.218L118.759,192.778z M104.963,203.121l-0.462,0.001l-0.453-0.133l-0.45-0.086l-0.448-0.08l-0.441-0.113
				l-0.47,0.014l-0.417-0.212l-0.471-0.015l-0.399-0.245l-0.414-0.19l-0.503,0.016l-0.325-0.384l-0.457-0.108l-0.406-0.215
				l-0.427-0.185l-0.322-0.341l-0.345-0.303l-0.433-0.191l-0.292-0.364l-0.361-0.284l-0.377-0.271l-0.185-0.453l-0.48-0.193
				l-0.182-0.444l-0.32-0.335l-0.266-0.378l-0.152-0.445l-0.207-0.408l-0.167-0.426l-0.359-0.337l-0.092-0.459l-0.082-0.459
				l-0.183-0.417l-0.172-0.426l-0.062-0.457l-0.107-0.442l-0.121-0.442l-0.009-0.459l-0.015-0.456l-0.092-0.452l-0.121-0.457
				l-0.015-0.469l0.142-0.462l-0.029-0.472l-0.003-0.471l0.03-0.475l0.207-0.437l0.231-0.419l0.148-0.435l0.038-0.486l0.149-0.339
				l-0.308,0.188l-0.5,0.038l-0.285,0.439l-0.488,0.08l-0.434,0.186l-0.317,0.358l-0.381,0.264l-0.308,0.351l-0.3,0.354
				l-0.453,0.193l-0.307,0.348l-0.338,0.32l-0.29,0.362l-0.148,0.469l-0.254,0.38l-0.42,0.281l-0.239,0.398l-0.1,0.472l-0.208,0.411
				l-0.183,0.426l-0.26,0.397l-0.068,0.465l-0.107,0.45l-0.21,0.426l-0.073,0.461l-0.09,0.456l-0.082,0.459l0.003,0.467
				l-0.008,0.464l-0.059,0.466l0.136,0.456l0.024,0.456l-0.097,0.471l0.322,0.42l0.053,0.45l-0.083,0.483l0.299,0.396l-0.007,0.476
				l0.134,0.438l0.125,0.441l0.225,0.403l0.125,0.445l0.315,0.355l0.127,0.45l0.364,0.314l0.139,0.45l0.346,0.315l0.245,0.382
				l0.228,0.402l0.311,0.335l0.296,0.351l0.338,0.307l0.408,0.23l0.228,0.433l0.467,0.145l0.276,0.393l0.4,0.224l0.438,0.16
				l0.325,0.347l0.445,0.134l0.378,0.263l0.456,0.096l0.384,0.268l0.441,0.122l0.413,0.21l0.474-0.005l0.424,0.187l0.425,0.214
				l0.458,0.056l0.473-0.08l0.455,0.007l0.447,0.224l0.462-0.228l0.456,0.097l0.456-0.066l0.459,0.019l0.467,0.045l0.458-0.054
				l0.414-0.284l0.489,0.094l0.395-0.307l0.434-0.133l0.508,0.062l0.403-0.232l0.445-0.133l0.348-0.336l0.404-0.211l0.342-0.314
				l0.495-0.086l0.363-0.285l0.269-0.397l0.441-0.193l0.2-0.45l0.395-0.259l0.362-0.296l0.146-0.471l0.34-0.317l0.285-0.362
				l0.266-0.38l0.126-0.456l0.294-0.364l0.113-0.454l0.256-0.392l0.12-0.445l0.242-0.403l0.027-0.465l-0.416,0.229l-0.412,0.25
				l-0.432,0.212l-0.478,0.105l-0.445,0.177l-0.47,0.097l-0.427,0.301l-0.509-0.111l-0.461,0.205l-0.492-0.127l-0.476,0.118
				L104.963,203.121z"/>
		</g>
	</g>
	<g>
		<path d="M147.896,166.026l0.005-22.646c0-3.738,3.045-6.783,6.784-6.783l0,0c3.738,0,6.706,3.053,6.709,6.783l0,0v0.503v0.861
			c0,0.255-0.254,0.688-0.69,0.688l0,0h-0.145c-0.408-0.031-0.663-0.284-0.693-0.688l0,0v-0.861v-0.503
			c-0.006-2.854-2.328-5.174-5.181-5.184l0,0c-2.859,0.01-5.179,2.329-5.185,5.184l0,0v22.646c0.006,2.855,2.325,5.173,5.185,5.181
			l0,0c2.853-0.008,5.175-2.325,5.181-5.181l0,0v-1.576c0-0.393,0.267-0.756,0.693-0.767l0,0h0.145
			c0.189-0.009,0.435,0.086,0.557,0.269l0,0c0.118,0.177,0.134,0.352,0.134,0.498l0,0l0.003,1.576
			c-0.006,3.729-2.974,6.783-6.712,6.783l0,0C150.945,172.809,147.9,169.764,147.896,166.026L147.896,166.026z"/>
	</g>
</g>
</svg>
