<?xml version="1.0" encoding="utf-8"?>
<svg viewBox="94.139 142.097 247.78 249.43" width="247.78" height="249.43" xmlns="http://www.w3.org/2000/svg">
  <polygon style="fill: #843061;" points="94.139 267.311 217.584 245.996 217.584 267.311" transform="matrix(0.9999999999999999, 0, 0, 0.9999999999999999, -5.684341886080802e-14, -2.842170943040401e-14)"/>
  <polygon style="fill: #843061;" points="190.132 257.143 168.818 222.507 209.67 244.709" transform="matrix(0.9999999999999999, 0, 0, 0.9999999999999999, -5.684341886080802e-14, -2.842170943040401e-14)"/>
  <polygon style="fill: #843061; transform-origin: 206.579px 205.089px;" points="143.587 193.195 269.573 216.983 269.573 193.195" transform="matrix(0, 1, -1, 0, 0, -0.000007987022)"/>
  <polygon style="fill: #843061; transform-origin: 280.196px 256.654px;" points="218.473 245.996 341.918 267.311 341.918 245.996" transform="matrix(-1, 0, 0, -1, 0, 0)"/>
  <polygon style="fill: #843061; transform-origin: 246.813px 239.825px;" points="247.701 222.507 226.387 257.143 267.239 234.941" transform="matrix(-1, 0, 0, -1, -0.000030517578, 0)"/>
  <polygon style="fill: #843061; transform-origin: 229.478px 205.089px;" points="166.486 216.983 292.472 193.195 292.472 216.983" transform="matrix(0, 1, -1, 0, 0, 0.000009536743)"/>
  <polygon style="fill: #843061;" points="94.139 266.312 217.584 287.627 217.584 266.312" transform="matrix(0.9999999999999999, 0, 0, 0.9999999999999999, -5.684341886080802e-14, -2.842170943040401e-14)"/>
  <polygon style="fill: #843061;" points="190.132 276.48 168.818 311.116 209.67 288.914" transform="matrix(0.9999999999999999, 0, 0, 0.9999999999999999, -5.684341886080802e-14, -2.842170943040401e-14)"/>
  <polygon style="fill: #843061; transform-origin: 206.579px 329.805px;" points="144.857 341.699 268.302 317.911 268.302 341.699" transform="matrix(0, -1, 1, 0, -0.000045776367, 0.000015258789)"/>
  <polygon style="fill: #843061; transform-origin: 280.196px 276.969px;" points="218.473 287.627 341.918 266.312 341.918 287.627" transform="matrix(-1, 0, 0, -1, 0, 0)"/>
  <polygon style="fill: #843061; transform-origin: 246.813px 293.798px;" points="247.701 311.116 226.387 276.48 267.239 298.682" transform="matrix(-1, 0, 0, -1, -0.000030517578, 0)"/>
  <polygon style="fill: #843061; transform-origin: 229.478px 329.805px;" points="167.756 317.911 291.201 341.699 291.201 317.911" transform="matrix(0, -1, 1, 0, -0.000030517578, 0.000015258789)"/>
</svg>