<?xml version="1.0" encoding="utf-8"?>
<svg viewBox="176.732 48.923 258.842 257.472" xmlns="http://www.w3.org/2000/svg">
  <path style="fill: #FDD162;" d="M 176.732 177.215 C 275.311 175.683 305.157 112.384 306.395 48.923 C 305.938 112.384 327.683 176.192 435.574 176.327 C 322.67 177.504 306.36 242.935 307.283 306.395 C 307.958 242.935 275.311 173.865 176.732 177.215 Z"/>
  <polygon style="fill: #FDD162;" points="348.135 218.956 360.923 248.696 390.764 260.697 374.245 233.044"/>
  <polygon style="fill: #FDD162; transform-origin: 238.011px 239.826px;" points="216.696 260.697 229.484 230.957 259.325 218.956 242.806 246.609" transform="matrix(-1, 0, 0, -1, 0, 0.000030517578)"/>
  <polygon style="fill: #FDD162;" points="348.134 132.81 360.922 103.07 390.763 91.069 374.244 118.722"/>
  <polygon style="fill: #FDD162; transform-origin: 238.01px 111.94px;" points="216.695 91.069 229.483 120.809 259.324 132.81 242.805 105.157" transform="matrix(-1, 0, 0, -1, 0, 0.000015258789)"/>
</svg>